<svg width="25" height="20" viewBox="0 0 25 20" fill="none" xmlns="http://www.w3.org/2000/svg">
<path fill-rule="evenodd" clip-rule="evenodd" d="M12.1513 4.323C16.843 4.323 20.8252 6.7004 22.239 10.0001C20.8252 13.2998 16.843 15.6772 12.1513 15.6772C7.45967 15.6772 3.47742 13.2998 2.0636 10.0001C3.47742 6.7004 7.45967 4.323 12.1513 4.323ZM14.6732 9.84383C14.6732 10.9944 13.5441 11.9272 12.1513 11.9272C10.7585 11.9272 9.62939 10.9944 9.62939 9.84383C9.62939 8.69324 10.7585 7.7605 12.1513 7.7605C13.5441 7.7605 14.6732 8.69324 14.6732 9.84383ZM16.1864 9.84383C16.1864 11.6848 14.3798 13.1772 12.1513 13.1772C9.9228 13.1772 8.11623 11.6848 8.11623 9.84383C8.11623 8.00288 9.9228 6.5105 12.1513 6.5105C14.3798 6.5105 16.1864 8.00288 16.1864 9.84383Z" fill="#546E7A"/>
<path fill-rule="evenodd" clip-rule="evenodd" d="M2.00415 9.98266C3.42721 6.66144 7.43391 4.27087 12.1513 4.27087C16.8687 4.27087 20.8754 6.66144 22.2985 9.98266L22.3059 10L22.2985 10.0174C20.8754 13.3386 16.8687 15.7292 12.1513 15.7292C7.43391 15.7292 3.42721 13.3386 2.00415 10.0174L1.9967 10L2.00415 9.98266ZM2.13049 10C3.54161 13.2692 7.49365 15.625 12.1513 15.625C16.809 15.625 20.761 13.2692 22.1721 10C20.761 6.73093 16.809 4.37504 12.1513 4.37504C7.49365 4.37504 3.54161 6.73093 2.13049 10ZM8.05317 9.84379C8.05317 7.97408 9.88797 6.45837 12.1513 6.45837C14.4146 6.45837 16.2494 7.97408 16.2494 9.84379C16.2494 11.7135 14.4146 13.2292 12.1513 13.2292C9.88797 13.2292 8.05317 11.7135 8.05317 9.84379ZM12.1513 6.56254C9.95761 6.56254 8.17926 8.03161 8.17926 9.84379C8.17926 11.656 9.95761 13.125 12.1513 13.125C14.345 13.125 16.1233 11.656 16.1233 9.84379C16.1233 8.03161 14.345 6.56254 12.1513 6.56254ZM9.56633 9.84379C9.56633 8.66443 10.7237 7.70837 12.1513 7.70837C13.5789 7.70837 14.7363 8.66443 14.7363 9.84379C14.7363 11.0231 13.5789 11.9792 12.1513 11.9792C10.7237 11.9792 9.56633 11.0231 9.56633 9.84379ZM12.1513 7.81254C10.7933 7.81254 9.69242 8.72196 9.69242 9.84379C9.69242 10.9656 10.7933 11.875 12.1513 11.875C13.5093 11.875 14.6102 10.9656 14.6102 9.84379C14.6102 8.72196 13.5093 7.81254 12.1513 7.81254Z" fill="#546E7A"/>
</svg>
